<svg width="250" height="82" viewBox="0 0 250 82" fill="none" xmlns="http://www.w3.org/2000/svg">
<path d="M134.769 73.52C132.836 73.52 131.182 73.0467 129.809 72.1C128.449 71.14 127.409 69.8333 126.689 68.18C125.969 66.5133 125.609 64.6267 125.609 62.52C125.609 61.1067 125.849 59.7667 126.329 58.5C126.809 57.2333 127.462 56.1133 128.289 55.14C129.116 54.1533 130.056 53.38 131.109 52.82C132.162 52.2467 133.262 51.96 134.409 51.96C135.089 51.96 135.756 52.0067 136.409 52.1C137.076 52.18 137.929 52.3733 138.969 52.68C138.609 53.6 138.182 54.3467 137.689 54.92C137.209 55.4933 136.636 55.8133 135.969 55.88C134.876 55.9467 134.002 56.2733 133.349 56.86C132.709 57.4333 132.242 58.2067 131.949 59.18C131.669 60.1533 131.529 61.2667 131.529 62.52C131.529 63.76 131.696 64.9 132.029 65.94C132.362 66.98 132.842 67.82 133.469 68.46C134.109 69.0867 134.876 69.4 135.769 69.4C136.529 69.4 137.282 69.1733 138.029 68.72C138.776 68.2667 139.569 67.56 140.409 66.6V42.68H145.969V67.96C145.969 68.6933 146.016 69.48 146.109 70.32C146.202 71.16 146.356 72.0533 146.569 73H142.289C141.956 72.8133 141.676 72.5467 141.449 72.2C141.222 71.8533 141.036 71.4933 140.889 71.12L140.689 70.2L140.009 71.08C138.969 72.0133 138.029 72.6533 137.189 73C136.362 73.3467 135.556 73.52 134.769 73.52ZM161.454 73.52C159.628 73.52 158.048 73.2 156.714 72.56C155.381 71.9067 154.281 71.04 153.414 69.96C152.561 68.8667 151.928 67.66 151.514 66.34C151.101 65.0067 150.894 63.6667 150.894 62.32C150.894 60.12 151.361 58.2333 152.294 56.66C153.241 55.0867 154.508 53.8867 156.094 53.06C157.681 52.22 159.441 51.8 161.374 51.8C162.854 51.8 164.194 52.0933 165.394 52.68C166.608 53.2533 167.594 54.0667 168.354 55.12C169.128 56.1733 169.594 57.42 169.754 58.86C169.928 60.3 169.721 61.88 169.134 63.6H157.934C158.214 62.68 158.634 61.9067 159.194 61.28C159.754 60.64 160.374 60.32 161.054 60.32H164.614C164.721 59.5067 164.648 58.7467 164.394 58.04C164.141 57.3333 163.728 56.7667 163.154 56.34C162.594 55.9 161.908 55.68 161.094 55.68C160.361 55.68 159.634 55.9 158.914 56.34C158.194 56.78 157.594 57.4733 157.114 58.42C156.648 59.3667 156.414 60.6 156.414 62.12C156.414 63.6533 156.648 64.9667 157.114 66.06C157.594 67.14 158.254 67.9667 159.094 68.54C159.948 69.1133 160.934 69.4 162.054 69.4C162.974 69.4 163.888 69.2867 164.794 69.06C165.701 68.82 166.734 68.44 167.894 67.92L169.294 71.64C167.854 72.32 166.494 72.8 165.214 73.08C163.948 73.3733 162.694 73.52 161.454 73.52ZM179.673 73L171.913 52.32H177.793L182.433 66.96L182.713 68.16L182.993 66.96L187.593 52.32H193.393L185.633 73H179.673Z" fill="url(#paint0_linear_1030_5492)"/>
<path d="M65.2 43V26.28H61.88V23.12L65.2 22.32V21.2C65.2 19.4533 65.5533 17.9267 66.26 16.62C66.98 15.3133 67.9933 14.3 69.3 13.58C70.62 12.8467 72.1733 12.48 73.96 12.48C74.6267 12.48 75.42 12.5667 76.34 12.74C77.26 12.9 78.24 13.2133 79.28 13.68L78.04 17.24C77.2667 17.0133 76.6067 16.8533 76.06 16.76C75.5267 16.6533 75.0267 16.6 74.56 16.6C73.6933 16.6 72.9533 16.7933 72.34 17.18C71.74 17.5533 71.28 18.0867 70.96 18.78C70.64 19.4733 70.48 20.28 70.48 21.2V43H65.2ZM71.84 26.28C72.0133 25.6933 72.26 25.0933 72.58 24.48C72.9133 23.8667 73.3467 23.3533 73.88 22.94C74.4133 22.5267 75.0667 22.32 75.84 22.32H77.6V26.28H71.84ZM84.8594 43V12.68H90.4194V43H84.8594ZM105.508 43.52C103.682 43.52 102.102 43.2 100.768 42.56C99.4351 41.9067 98.3351 41.04 97.4684 39.96C96.6151 38.8667 95.9818 37.66 95.5684 36.34C95.1551 35.0067 94.9484 33.6667 94.9484 32.32C94.9484 30.12 95.4151 28.2333 96.3484 26.66C97.2951 25.0867 98.5618 23.8867 100.148 23.06C101.735 22.22 103.495 21.8 105.428 21.8C106.908 21.8 108.248 22.0933 109.448 22.68C110.662 23.2533 111.648 24.0667 112.408 25.12C113.182 26.1733 113.648 27.42 113.808 28.86C113.982 30.3 113.775 31.88 113.188 33.6H101.988C102.268 32.68 102.688 31.9067 103.248 31.28C103.808 30.64 104.428 30.32 105.108 30.32H108.668C108.775 29.5067 108.702 28.7467 108.448 28.04C108.195 27.3333 107.782 26.7667 107.208 26.34C106.648 25.9 105.962 25.68 105.148 25.68C104.415 25.68 103.688 25.9 102.968 26.34C102.248 26.78 101.648 27.4733 101.168 28.42C100.702 29.3667 100.468 30.6 100.468 32.12C100.468 33.6533 100.702 34.9667 101.168 36.06C101.648 37.14 102.308 37.9667 103.148 38.54C104.002 39.1133 104.988 39.4 106.108 39.4C107.028 39.4 107.942 39.2867 108.848 39.06C109.755 38.82 110.788 38.44 111.948 37.92L113.348 41.64C111.908 42.32 110.548 42.8 109.268 43.08C108.002 43.3733 106.748 43.52 105.508 43.52ZM123.527 43.52C122.247 43.52 121.14 43.24 120.207 42.68C119.287 42.1067 118.573 41.36 118.067 40.44C117.573 39.52 117.327 38.5333 117.327 37.48C117.327 36.3733 117.653 35.3267 118.307 34.34C118.96 33.3533 120.08 32.52 121.667 31.84C123.267 31.1467 125.473 30.6933 128.287 30.48C128.193 31.1067 128.04 31.6867 127.827 32.22C127.613 32.74 127.32 33.1733 126.947 33.52C126.587 33.8667 126.127 34.0933 125.567 34.2C124.9 34.3067 124.353 34.4933 123.927 34.76C123.5 35.0267 123.187 35.3533 122.987 35.74C122.787 36.1133 122.687 36.52 122.687 36.96C122.687 37.6533 122.933 38.2333 123.427 38.7C123.92 39.1667 124.513 39.4 125.207 39.4C125.967 39.4 126.733 39.14 127.507 38.62C128.293 38.0867 129.033 37.4133 129.727 36.6V30.56C129.727 29.1733 129.34 28.0667 128.567 27.24C127.807 26.4133 126.727 26 125.327 26C124.673 26 123.967 26.0667 123.207 26.2C122.447 26.3333 121.593 26.5733 120.647 26.92L119.287 23.4C120.473 22.8533 121.693 22.4667 122.947 22.24C124.213 22 125.313 21.88 126.247 21.88C129.087 21.88 131.273 22.6267 132.807 24.12C134.353 25.6133 135.127 27.76 135.127 30.56V37.96C135.127 38.6933 135.173 39.48 135.267 40.32C135.36 41.16 135.527 42.0533 135.767 43H131.647C131.287 42.8 130.987 42.52 130.747 42.16C130.52 41.7867 130.327 41.4 130.167 41L130.047 40.2L129.567 40.88C128.367 41.9733 127.313 42.6867 126.407 43.02C125.513 43.3533 124.553 43.52 123.527 43.52ZM140.406 43V12.68H145.966V43H140.406Z" fill="url(#paint1_linear_1030_5492)"/>
<path d="M32.12 79.08C28.76 76.8133 26.08 74.3467 24.08 71.68C22.1067 69.04 20.64 65.9733 19.68 62.48C18.72 58.9867 18.0933 54.84 17.8 50.04C17.64 48.1467 16.8133 46.6533 15.32 45.56C13.8533 44.4667 12.0933 43.7467 10.04 43.4V37.64C12.0933 37.2667 13.88 36.5333 15.4 35.44C16.9467 34.3467 17.8 32.8667 17.96 31C18.28 26.52 18.92 22.64 19.88 19.36C20.8667 16.08 22.3333 13.1867 24.28 10.68C26.2533 8.17333 28.8667 5.82667 32.12 3.64L37.4 8.84C35.16 10.84 33.3733 12.8267 32.04 14.8C30.7333 16.7467 29.7467 18.92 29.08 21.32C28.4133 23.72 27.96 26.5733 27.72 29.88C27.56 32.0667 26.9333 34 25.84 35.68C24.7733 37.36 23.4 38.76 21.72 39.88L19.8 40.76L21.64 41.56C23.3733 42.68 24.7733 44.08 25.84 45.76C26.9333 47.4133 27.56 49.3467 27.72 51.56C27.9333 55.1067 28.36 58.1733 29 60.76C29.6667 63.32 30.6667 65.6267 32 67.68C33.3333 69.76 35.1333 71.8 37.4 73.8L32.12 79.08Z" fill="#FF0000"/>
<path d="M217.391 79.08L212.111 73.8C214.378 71.8 216.178 69.76 217.511 67.68C218.844 65.6267 219.831 63.32 220.471 60.76C221.138 58.1733 221.578 55.1067 221.791 51.56C221.951 49.3467 222.564 47.4267 223.631 45.8C224.724 44.1467 226.111 42.76 227.791 41.64L229.791 40.76L227.711 39.88C226.031 38.76 224.658 37.36 223.591 35.68C222.551 34 221.951 32.0667 221.791 29.88C221.551 26.5733 221.098 23.72 220.431 21.32C219.791 18.92 218.804 16.7467 217.471 14.8C216.138 12.8267 214.351 10.84 212.111 8.84L217.391 3.64C220.644 5.82667 223.244 8.17333 225.191 10.68C227.164 13.1867 228.631 16.08 229.591 19.36C230.578 22.64 231.231 26.52 231.551 31C231.711 32.8667 232.564 34.3467 234.111 35.44C235.658 36.5333 237.444 37.2667 239.471 37.64V43.4C237.444 43.7467 235.684 44.4667 234.191 45.56C232.698 46.6533 231.871 48.1467 231.711 50.04C231.418 54.84 230.791 58.9867 229.831 62.48C228.871 65.9733 227.391 69.04 225.391 71.68C223.418 74.3467 220.751 76.8133 217.391 79.08Z" fill="#FF0000"/>
<defs>
<linearGradient id="paint0_linear_1030_5492" x1="94.9113" y1="64" x2="259.5" y2="64" gradientUnits="userSpaceOnUse">
<stop offset="0.473958" stop-color="#2BC611"/>
<stop offset="0.729167" stop-color="white" stop-opacity="0"/>
</linearGradient>
<linearGradient id="paint1_linear_1030_5492" x1="174.402" y1="34" x2="3.65464" y2="34" gradientUnits="userSpaceOnUse">
<stop offset="0.578125" stop-color="#2BC611"/>
<stop offset="0.739583" stop-color="white" stop-opacity="0"/>
</linearGradient>
</defs>
</svg>
