<svg width="50" height="50" viewBox="0 0 50 50" fill="none" xmlns="http://www.w3.org/2000/svg">
<path fill-rule="evenodd" clip-rule="evenodd" d="M12.94 43.86C11.26 42.7267 9.91999 41.4933 8.91999 40.16C7.93333 38.84 7.19999 37.3067 6.71999 35.56C6.23999 33.8133 5.92666 31.74 5.77999 29.34C5.69999 28.3933 5.28666 27.6467 4.53999 27.1C3.80666 26.5533 2.92666 26.1933 1.89999 26.02V23.14C2.92666 22.9533 3.81999 22.5867 4.57999 22.04C5.35333 21.4933 5.77999 20.7533 5.85999 19.82C6.01999 17.58 6.33999 15.64 6.81999 14C7.31333 12.36 8.04666 10.9133 9.01999 9.66C10.0067 8.40667 11.3133 7.23333 12.94 6.14L15.58 8.74C14.46 9.74 13.5667 10.7333 12.9 11.72C12.2467 12.6933 11.7533 13.78 11.42 14.98C11.0867 16.18 10.86 17.6067 10.74 19.26C10.66 20.3533 10.3467 21.32 9.79999 22.16C9.26666 23 8.57999 23.7 7.73999 24.26L6.77999 24.7L7.69999 25.1C8.56666 25.66 9.26666 26.36 9.79999 27.2C10.3467 28.0267 10.66 28.9933 10.74 30.1C10.8467 31.8733 11.06 33.4067 11.38 34.7C11.7133 35.98 12.2133 37.1333 12.88 38.16C13.5467 39.2 14.4467 40.22 15.58 41.22L12.94 43.86ZM24.46 35.42C23.5267 35.42 22.74 35.1067 22.1 34.48C21.46 33.84 21.14 33.06 21.14 32.14C21.14 31.22 21.46 30.4333 22.1 29.78C22.74 29.1133 23.5267 28.78 24.46 28.78C25.38 28.78 26.1533 29.1133 26.78 29.78C27.42 30.4333 27.74 31.22 27.74 32.14C27.74 33.06 27.42 33.84 26.78 34.48C26.1533 35.1067 25.38 35.42 24.46 35.42ZM24.46 21.06C23.5267 21.06 22.74 20.7467 22.1 20.12C21.46 19.48 21.14 18.7 21.14 17.78C21.14 16.86 21.46 16.0733 22.1 15.42C22.74 14.7533 23.5267 14.42 24.46 14.42C25.38 14.42 26.1533 14.7533 26.78 15.42C27.42 16.0733 27.74 16.86 27.74 17.78C27.74 18.7 27.42 19.48 26.78 20.12C26.1533 20.7467 25.38 21.06 24.46 21.06ZM34.42 41.22L37.06 43.86C38.74 42.7267 40.0733 41.4933 41.06 40.16C42.06 38.84 42.8 37.3067 43.28 35.56C43.76 33.8133 44.0733 31.74 44.22 29.34C44.3 28.3933 44.7133 27.6467 45.46 27.1C46.2067 26.5533 47.0867 26.1933 48.1 26.02V23.14C47.0867 22.9533 46.1933 22.5867 45.42 22.04C44.6467 21.4933 44.22 20.7533 44.14 19.82C43.98 17.58 43.6533 15.64 43.16 14C42.68 12.36 41.9467 10.9133 40.96 9.66C39.9867 8.40667 38.6867 7.23333 37.06 6.14L34.42 8.74C35.54 9.74 36.4333 10.7333 37.1 11.72C37.7667 12.6933 38.26 13.78 38.58 14.98C38.9133 16.18 39.14 17.6067 39.26 19.26C39.34 20.3533 39.64 21.32 40.16 22.16C40.6933 23 41.38 23.7 42.22 24.26L43.26 24.7L42.26 25.14C41.42 25.7 40.7267 26.3933 40.18 27.22C39.6467 28.0333 39.34 28.9933 39.26 30.1C39.1533 31.8733 38.9333 33.4067 38.6 34.7C38.28 35.98 37.7867 37.1333 37.12 38.16C36.4533 39.2 35.5533 40.22 34.42 41.22Z" fill="#FF0000"/>
</svg>
